# xmcd
#
# Track frame offsets:
#	150
#	13477
#	29045
#	41335
#	56082
#	71542
#	86707
#	101990
#	118110
#	134902
#	146840
#	163957
#	181842
#	202502
#	220457
#
# Disc length: 3142 seconds
#
# Revision: 0
# Processed by: cddbd v1.5.1PL0 Copyright (c) Steve Scherf et al.
# Submitted via: dBpowerAMP V4.0
#
DISCID=ef0c440f
DTITLE=Albert Babin - Fly Phonzyne
DYEAR=1900
DGENRE=
TTITLE0=Fly Phonsyne *
TTITLE1=Angèle *
TTITLE2=Même si je suis un homme *
TTITLE3=Leurs coeurs sont ancrés 
TTITLE4=Je pleure en ta présence (M.Martel)
TTITLE5=Un jour on sera séparé *
TTITLE6=Saurasa-tu choisir une autre vie? *
TTITLE7=Tu peux cesser de soirire *
TTITLE8=Jolie Louise (D.Lanoie)
TTITLE9=Je r'toure dans l'bois *
TTITLE10=Chez moi y'a de la haine *
TTITLE11=L'amour de ma vie *
TTITLE12=Quand on est un homme (J.L.Houle)
TTITLE13=Je t'aime *
TTITLE14=Tout a disparu * 
EXTD=L'acadienne
EXTT0=
EXTT1=
EXTT2=
EXTT3=
EXTT4=
EXTT5=
EXTT6=
EXTT7=
EXTT8=
EXTT9=
EXTT10=
EXTT11=
EXTT12=
EXTT13=
EXTT14=
PLAYORDER=
